<?xml version="1.0" standalone="no"?>
<!DOCTYPE svg PUBLIC "-//W3C//DTD SVG 20010904//EN"
 "http://www.w3.org/TR/2001/REC-SVG-20010904/DTD/svg10.dtd">
<svg version="1.0" xmlns="http://www.w3.org/2000/svg"
 width="200.000000pt" height="200.000000pt" viewBox="0 0 200.000000 200.000000"
 preserveAspectRatio="xMidYMid meet">

<g transform="translate(0.000000,200.000000) scale(0.100000,-0.100000)"
fill="#000000" stroke="none">
<path d="M1830 1782 c-276 -150 -433 -263 -595 -427 -127 -128 -211 -242 -294
-399 -50 -94 -121 -267 -146 -354 -4 -13 -10 -21 -13 -18 -3 4 -29 77 -57 163
l-51 157 -54 17 c-30 9 -69 20 -87 23 l-32 7 30 -108 c16 -59 29 -109 29 -111
0 -2 -16 10 -37 25 -20 15 -88 55 -152 88 -133 69 -161 100 -142 158 28 84
176 95 239 18 11 -14 18 -10 57 34 25 27 45 54 45 60 0 17 -39 50 -90 76 -59
31 -166 37 -242 15 -119 -34 -193 -124 -193 -231 1 -115 55 -176 236 -271 150
-78 182 -121 145 -192 -21 -40 -60 -57 -131 -57 -67 0 -118 25 -147 73 l-15
24 -51 -60 -52 -60 26 -31 c58 -70 176 -109 290 -97 81 8 119 22 174 62 42 30
90 102 90 133 0 40 22 -20 65 -178 l49 -181 38 0 c31 0 38 4 42 22 3 13 15 74
26 137 19 102 70 287 100 366 12 30 12 29 38 -51 34 -101 90 -178 172 -233
103 -68 233 -95 352 -71 183 36 292 162 318 369 16 119 30 111 -196 111 l-194
0 0 -80 0 -80 106 0 106 0 -7 -32 c-18 -82 -89 -128 -199 -128 -88 0 -136 15
-186 57 -67 57 -93 113 -98 207 -5 97 7 148 51 212 84 127 291 149 408 45 l44
-39 58 41 c31 22 57 46 57 53 0 20 -96 99 -155 128 -30 14 -77 31 -106 37 -64
14 -177 7 -239 -15 -24 -8 -46 -14 -47 -12 -8 7 131 167 218 253 145 142 325
280 472 363 31 17 57 34 57 36 0 12 -36 -3 -130 -54z"/>
</g>
</svg>
