<svg width="24" height="22" viewBox="0 0 24 22" fill="none" xmlns="http://www.w3.org/2000/svg">
<path d="M8.69832 19.1682L16.044 15.8299C20.6813 13.7224 23 12.6687 23 11C23 9.33132 20.6813 8.27758 16.044 6.17011L8.69833 2.83183C5.88249 1.55215 4.47458 0.912314 3.58823 1.00967C2.30768 1.15033 1.27333 2.02603 1.02819 3.17705C0.858526 3.97373 1.46092 5.29554 2.66571 7.93915C3.11144 8.91719 3.3343 9.40621 3.44822 9.90732C3.61209 10.6282 3.61209 11.3718 3.44822 12.0927C3.3343 12.5938 3.11144 13.0828 2.66571 14.0609C1.46092 16.7045 0.858526 18.0263 1.02819 18.823C1.27332 19.974 2.30768 20.8497 3.58823 20.9903C4.47458 21.0877 5.88249 20.4478 8.69832 19.1682Z" stroke="#EF9000" stroke-width="1.5"/>
</svg>
