<?xml version="1.0" standalone="no"?>
<!DOCTYPE svg PUBLIC "-//W3C//DTD SVG 20010904//EN"
 "http://www.w3.org/TR/2001/REC-SVG-20010904/DTD/svg10.dtd">
<svg version="1.0" xmlns="http://www.w3.org/2000/svg"
 width="259.000000pt" height="194.000000pt" viewBox="0 0 259.000000 194.000000"
 preserveAspectRatio="xMidYMid meet">

<g transform="translate(0.000000,194.000000) scale(0.100000,-0.100000)"
fill="#000000" stroke="none">
<path d="M1160 1074 c62 -67 87 -110 104 -180 50 -203 20 -275 -116 -275 -77
0 -114 15 -135 54 -26 51 15 107 79 107 12 0 19 3 15 6 -11 11 -78 -7 -98 -27
-28 -28 -26 -90 6 -121 29 -29 86 -48 147 -48 24 0 117 20 207 45 89 25 175
45 190 45 40 0 69 -26 77 -67 6 -34 8 -35 20 -18 22 30 17 83 -11 110 -19 20
-34 25 -73 25 -41 0 -132 -22 -198 -47 -27 -10 -17 77 16 133 28 50 103 124
124 124 6 0 -4 -12 -21 -27 -37 -33 -83 -99 -83 -121 0 -20 74 -10 109 15 28
20 86 129 96 181 6 31 6 32 -27 32 -57 0 -138 -29 -175 -63 -28 -26 -36 -42
-40 -80 -8 -67 -27 -78 -43 -24 -29 99 -93 186 -180 247 -34 23 -33 22 10 -26z"/>
<path d="M996 622 c43 -77 149 -90 354 -43 196 45 205 46 229 22 21 -21 21
-21 21 -1 0 11 -11 27 -25 36 -31 20 -69 15 -255 -33 -183 -47 -263 -40 -323
31 -18 20 -18 20 -1 -12z"/>
</g>
</svg>
