<?xml version="1.0" standalone="no"?>
<!DOCTYPE svg PUBLIC "-//W3C//DTD SVG 20010904//EN"
 "http://www.w3.org/TR/2001/REC-SVG-20010904/DTD/svg10.dtd">
<svg version="1.0" xmlns="http://www.w3.org/2000/svg"
 width="225.000000pt" height="225.000000pt" viewBox="0 0 225.000000 225.000000"
 preserveAspectRatio="xMidYMid meet">

<g transform="translate(0.000000,225.000000) scale(0.100000,-0.100000)"
fill="#000000" stroke="none">
<path d="M937 2184 c-265 -48 -512 -198 -668 -407 -287 -386 -292 -900 -11
-1290 60 -83 174 -198 242 -243 22 -15 40 -31 40 -35 0 -5 3 -8 8 -7 4 1 24
-7 44 -17 28 -14 35 -22 27 -31 -8 -10 -18 -8 -45 8 -19 11 -37 18 -39 16 -4
-4 130 -78 141 -78 3 0 2 6 -2 13 -4 6 3 1 16 -11 14 -15 30 -22 41 -19 11 3
17 1 14 -3 -6 -10 98 -43 185 -59 223 -41 460 -9 666 88 134 64 211 117 311
214 164 159 269 351 319 584 22 105 22 331 0 432 -22 101 -73 244 -91 257 -8
6 -12 13 -9 16 2 3 -1 17 -7 32 -9 19 -15 23 -21 14 -4 -7 -8 -17 -8 -23 0 -5
5 -3 10 5 7 11 9 10 7 -8 -1 -22 -3 -22 -28 10 -15 18 -26 34 -24 36 2 2 -3
11 -12 20 -8 9 -36 46 -62 82 -120 163 -326 308 -526 369 -164 51 -359 64
-518 35z m148 -125 l38 -101 40 101 39 102 41 -3 42 -3 3 -142 3 -143 -31 0
-30 0 -1 98 0 97 -37 -97 c-35 -95 -37 -98 -68 -98 -30 0 -32 3 -67 93 l-36
92 0 -92 -1 -93 -30 0 -30 0 0 145 0 145 44 0 43 0 38 -101z m-362 41 c-13 -5
-23 -12 -23 -16 0 -3 7 -4 14 -1 10 4 13 1 9 -9 -3 -8 -11 -13 -18 -10 -8 3
-12 -2 -11 -12 2 -9 8 -18 14 -20 17 -5 15 -22 -2 -22 -9 0 -16 -17 -21 -49
-3 -26 -16 -63 -28 -82 -11 -19 -21 -37 -22 -41 -1 -14 -13 -19 -21 -7 -5 8
-3 10 6 4 9 -5 11 -4 6 4 -4 6 -12 9 -17 5 -5 -3 -7 -10 -4 -15 7 -10 -8 -12
-19 -2 -3 4 -14 8 -22 9 -15 2 -10 -9 4 -12 54 -11 82 -58 64 -107 -8 -21 -8
-34 -1 -43 7 -8 6 -14 -2 -20 -7 -4 -9 -3 -5 4 3 6 2 13 -3 16 -5 3 -41 -32
-80 -79 -40 -47 -75 -85 -79 -85 -4 0 -24 14 -45 31 -29 24 -41 28 -51 20 -11
-9 -15 -9 -19 1 -7 22 -20 2 -26 -42 -1 -7 -60 -29 -124 -46 -47 -12 -48 -12
-42 9 5 19 5 20 -5 4 -6 -9 -9 -21 -6 -26 3 -5 -3 -18 -13 -30 -19 -21 -37
-29 -26 -11 4 6 9 23 11 38 19 105 142 307 256 420 83 84 231 187 250 176 7
-4 9 -3 5 2 -8 9 76 52 103 53 8 0 5 -4 -7 -9z m1090 -205 c18 -25 18 -25 -27
-84 -26 -33 -46 -62 -46 -65 0 -3 33 10 74 29 l73 33 22 -28 21 -29 -46 -66
c-25 -36 -43 -65 -40 -65 4 0 37 15 74 34 l67 34 18 -25 c11 -13 17 -26 15
-28 -5 -5 -227 -115 -232 -115 -3 0 -14 14 -26 30 l-21 30 45 66 c52 73 51 73
-53 28 -29 -13 -54 -24 -55 -24 -1 0 -12 13 -24 30 l-22 30 77 104 c43 58 80
105 83 105 3 0 13 -11 23 -24z m-700 -277 c-2 -101 -5 -247 -9 -325 l-6 -141
-131 -6 c-73 -4 -219 -7 -326 -9 l-193 -2 7 90 c11 143 59 253 157 360 79 87
196 167 260 179 13 3 25 5 28 6 3 1 13 1 24 0 12 -1 16 2 11 11 -5 7 -4 10 2
6 6 -4 30 -3 54 2 24 5 62 9 84 10 l40 1 -2 -182z m150 166 c189 -42 366 -175
449 -338 34 -68 68 -191 68 -251 l0 -42 -197 -6 c-108 -4 -251 -7 -318 -7
l-122 0 -7 320 c-4 176 -4 325 -1 330 9 14 45 12 128 -6z m291 -100 c7 -19 2
-18 -19 6 -16 17 -16 20 -3 15 9 -4 19 -13 22 -21z m81 -61 c-1 -2 18 -24 43
-50 61 -66 129 -209 148 -314 62 -325 -96 -635 -398 -779 -142 -69 -290 -86
-446 -54 -137 28 -302 121 -353 198 l-21 31 25 -27 c14 -15 58 -48 97 -74 169
-109 347 -145 528 -108 424 87 667 530 513 930 -33 84 -110 205 -163 254 -47
42 -50 63 -5 23 19 -15 33 -29 32 -30z m-1224 -87 c24 -21 26 -25 11 -31 -9
-3 -13 -3 -9 1 4 4 0 15 -9 25 -13 14 -20 16 -35 6 -14 -9 -21 -9 -31 2 -11
12 -10 13 4 8 10 -3 20 -2 23 3 9 14 14 13 46 -14z m697 -431 c1 -1 -1 -144
-5 -318 l-6 -317 -36 0 c-155 1 -339 93 -452 226 -84 100 -159 285 -159 393
l0 31 328 -6 c180 -4 328 -8 330 -9z m407 -5 c-66 -3 -113 -7 -105 -8 12 -2
12 -4 2 -11 -11 -6 -10 -10 4 -15 11 -4 20 -2 22 3 2 6 18 11 35 10 18 0 26
-3 19 -6 -6 -2 -10 -9 -6 -14 3 -5 -6 -9 -20 -9 -19 0 -26 -5 -26 -19 0 -11
-9 -22 -19 -26 -11 -3 -22 -12 -25 -20 -3 -8 -13 -15 -21 -15 -27 0 -95 -63
-95 -87 0 -12 -4 -25 -10 -28 -5 -3 -10 -1 -10 5 0 19 -48 -23 -55 -47 -5 -23
-25 -32 -25 -13 0 6 5 10 10 10 6 0 10 7 10 15 0 8 -7 15 -15 15 -9 0 -15 9
-15 23 0 12 -4 28 -8 35 -5 7 -8 -15 -7 -50 1 -35 -1 -101 -5 -148 -5 -60 -7
-12 -9 163 l-1 247 248 -2 c200 -2 224 -3 127 -8z m68 -17 c-13 -2 -33 -2 -45
0 -13 2 -3 4 22 4 25 0 35 -2 23 -4z m-36 -29 c-3 -3 -12 -4 -19 -1 -8 3 -5 6
6 6 11 1 17 -2 13 -5z m-847 -925 c19 -11 26 -17 15 -13 -11 4 -31 8 -45 9
-14 1 -27 4 -30 5 -3 1 -9 2 -13 1 -5 -1 -6 3 -2 9 9 15 36 11 75 -11z"/>
<path d="M516 1860 c7 -8 14 -24 17 -35 4 -19 5 -19 6 1 0 12 -7 28 -16 35
-16 12 -17 12 -7 -1z"/>
<path d="M380 1769 c-58 -68 -46 -72 16 -4 27 30 45 55 38 55 -6 0 -30 -23
-54 -51z"/>
<path d="M472 1699 c-23 -29 -42 -56 -42 -62 0 -6 6 -3 13 8 8 10 19 15 25 11
7 -4 10 -2 6 7 -3 9 2 13 15 12 31 -2 35 -12 12 -27 -12 -7 -21 -19 -21 -26 0
-7 -5 -10 -12 -6 -7 5 -8 3 -3 -5 8 -14 8 -14 64 53 32 39 38 53 30 68 -16 31
-44 20 -87 -33z m82 25 c4 -11 2 -15 -8 -11 -7 3 -24 -4 -36 -15 -30 -28 -35
-16 -6 15 29 31 41 34 50 11z m-23 -41 c-8 -15 -10 -15 -11 -2 0 17 10 32 18
25 2 -3 -1 -13 -7 -23z"/>
<path d="M1168 1093 c7 -3 16 -2 19 1 4 3 -2 6 -13 5 -11 0 -14 -3 -6 -6z"/>
<path d="M1253 1093 c20 -2 54 -2 75 0 20 2 3 4 -38 4 -41 0 -58 -2 -37 -4z"/>
<path d="M2070 1711 c5 -11 15 -23 21 -27 6 -3 3 5 -6 20 -20 30 -30 35 -15 7z"/>
<path d="M509 203 c-13 -16 -12 -17 4 -4 16 13 21 21 13 21 -2 0 -10 -8 -17
-17z"/>
</g>
</svg>
