<?xml version="1.0" standalone="no"?>
<!DOCTYPE svg PUBLIC "-//W3C//DTD SVG 20010904//EN"
 "http://www.w3.org/TR/2001/REC-SVG-20010904/DTD/svg10.dtd">
<svg version="1.0" xmlns="http://www.w3.org/2000/svg"
 width="439.000000pt" height="115.000000pt" viewBox="0 0 439.000000 115.000000"
 preserveAspectRatio="xMidYMid meet">

<g transform="translate(0.000000,115.000000) scale(0.100000,-0.100000)"
fill="#000000" stroke="none">
<path d="M2945 847 c-62 -21 -84 -36 -105 -70 -24 -39 -25 -88 -4 -132 17 -36
96 -84 170 -104 68 -18 109 -51 112 -92 4 -51 -24 -73 -92 -73 -64 0 -104 23
-113 64 -5 29 -8 30 -59 30 -59 0 -58 1 -44 -52 39 -139 313 -172 398 -47 19
27 23 43 19 82 -2 27 -13 61 -24 75 -21 28 -107 81 -133 82 -8 0 -43 13 -77
30 -59 27 -63 31 -63 63 0 48 29 71 90 71 38 0 55 -6 75 -24 14 -13 25 -32 25
-42 0 -15 8 -18 56 -18 l56 0 -7 28 c-12 48 -40 86 -82 110 -51 28 -143 37
-198 19z"/>
<path d="M3936 845 c-61 -21 -88 -46 -118 -105 -26 -49 -28 -63 -28 -164 0
-96 3 -118 24 -163 29 -61 77 -97 153 -114 71 -16 163 0 218 39 l40 28 3 107
3 107 -106 0 -105 0 0 -35 0 -35 50 0 50 0 0 -55 c0 -65 -15 -77 -96 -79 -83
-1 -121 46 -131 162 -12 148 33 235 121 235 51 0 73 -14 93 -60 12 -31 16 -33
64 -33 l51 0 -7 33 c-17 79 -58 120 -136 136 -65 14 -95 13 -143 -4z"/>
<path d="M3275 833 c16 -41 158 -461 167 -495 l10 -38 59 0 c33 0 59 2 59 3 0
2 41 122 90 266 50 145 90 267 90 272 0 5 -25 9 -55 9 l-54 0 -10 -37 c-40
-149 -117 -391 -122 -385 -3 4 -21 59 -39 122 -18 63 -45 156 -59 205 l-26 90
-59 3 c-53 3 -58 1 -51 -15z"/>
<path d="M2646 348 l1 -43 52 -3 51 -3 0 45 0 46 -52 0 -53 0 1 -42z"/>
</g>
</svg>
